<svg width="734" height="640" viewBox="0 0 734 640" fill="none" xmlns="http://www.w3.org/2000/svg" xmlns:xlink="http://www.w3.org/1999/xlink">
<rect width="734" height="640" fill="url(#pattern0)"/>
<defs>
<pattern id="pattern0" patternContentUnits="objectBoundingBox" width="1" height="1">
<use xlink:href="#image0_1_86" transform="translate(-0.00408719) scale(0.0013624 0.0015625)"/>
</pattern>
<image id="image0_1_86" width="740" height="640" xlink:href="img/home1.png"/>
</defs>
<path d="M216.038 506.921L443.615 514.558L514.939 501.48V522.194L444.336 541L216.038 530.499V506.921Z" fill="#3595F6" fill-opacity="0.75"/>
<path d="M217.068 505.966V482.101L444.13 485.251L515.969 482.101V501.193L444.542 513.603L217.068 505.966Z" fill="#3595F6" fill-opacity="0.75"/>
<path d="M217.068 481.146V457.281H444.851H515.969V479.237L445.882 485.919L217.068 481.146Z" fill="#3595F6" fill-opacity="0.75"/>
<path d="M217.068 458.236V434.371L445.161 430.839L514.939 437.235V458.236H444.851" fill="#3595F6" fill-opacity="0.75"/>
<path d="M217.068 433.416V408.597L445.367 405.447L515.969 415.947V436.28L444.851 429.884L217.068 433.416Z" fill="#3595F6" fill-opacity="0.75"/>
<path d="M216.038 407.642V385.018L443.821 373.277L517 395.232V415.565L443.821 403.824L216.038 407.642Z" fill="#3595F6" fill-opacity="0.75"/>
<path d="M216.038 386.641V362.776L445.058 347.216L517 374.518V394.278L444.542 373.563L216.038 386.641Z" fill="#3595F6" fill-opacity="0.75"/>
<path d="M216.038 362.776V338.911L445.367 319.533L517 354.471V374.231L442.79 346.834L216.038 362.776Z" fill="#3595F6" fill-opacity="0.75"/>
<path d="M216.038 337.956V315.046L445.882 291.467L517 333.47V354.185L445.573 317.91L216.038 337.956Z" fill="#3595F6" fill-opacity="0.75"/>
<path d="M216.038 314.091V291.181L445.367 263.784L517 312.469V332.229L444.542 291.849L216.038 314.091Z" fill="#3595F6" fill-opacity="0.75"/>
<path d="M215.007 291.181V268.271L444.13 236.769L517 293.377V312.182L444.851 263.784L215.007 291.181Z" fill="#3595F6" fill-opacity="0.75"/>
<path d="M216.038 267.316V244.406L444.027 210.994L515.969 272.089V292.136L445.161 236.482L216.038 267.316Z" fill="#3595F6" fill-opacity="0.75"/>
<path d="M216.038 244.406V220.541L445.161 184.266L515.969 251.374V271.134L444.851 210.04L216.038 244.406Z" fill="#3595F6" fill-opacity="0.75"/>
<path d="M215.061 181.933V156.933L435.861 113.233L506.061 192.233V214.933L437.061 141.633L215.061 181.933Z" fill="#3595F6" fill-opacity="0.75"/>
<path d="M217.068 196.676V172.81L443.821 126.99L515.969 208.131V230.087L443.099 154.387L217.068 196.676Z" fill="#3595F6" fill-opacity="0.75"/>
<path d="M216.038 172.81V148.945L442.584 99.3063L515.969 187.416V209.085L444.13 126.703L216.038 172.81Z" fill="#3595F6" fill-opacity="0.75"/>
<path d="M216.038 148.945V124.126L444.851 70L515.969 167.083V187.129L444.542 99.5926L216.038 148.945Z" fill="#3595F6" fill-opacity="0.75"/>

</svg>
